<?xml version="1.0" encoding="UTF-8" standalone="no" ?>
<!DOCTYPE svg PUBLIC "-//W3C//DTD SVG 1.1//EN" "http://www.w3.org/Graphics/SVG/1.1/DTD/svg11.dtd">
<svg xmlns="http://www.w3.org/2000/svg" xmlns:xlink="http://www.w3.org/1999/xlink" version="1.1" width="1080" height="1080" viewBox="0 0 1080 1080" xml:space="preserve">
<desc>Created with Fabric.js 5.2.4</desc>
<defs>
</defs>
<g transform="matrix(1 0 0 1 540 540)" id="8caa9eaf-12e1-4a27-af54-980c29ea0707"  >
<rect style="stroke: none; stroke-width: 1; stroke-dasharray: none; stroke-linecap: butt; stroke-dashoffset: 0; stroke-linejoin: miter; stroke-miterlimit: 4; fill: rgb(255,255,255); fill-rule: nonzero; opacity: 1; visibility: hidden;" vector-effect="non-scaling-stroke"  x="-540" y="-540" rx="0" ry="0" width="1080" height="1080" />
</g>
<g transform="matrix(1 0 0 1 540 540)" id="a0a75b65-7535-403b-98eb-96d7d291258e"  >
</g>
<g transform="matrix(22.22 0 0 22.22 540 540)"  >
<path style="stroke: none; stroke-width: 1; stroke-dasharray: none; stroke-linecap: butt; stroke-dashoffset: 0; stroke-linejoin: miter; stroke-miterlimit: 4; fill: rgb(0,0,0); fill-rule: nonzero; opacity: 1;" vector-effect="non-scaling-stroke"  transform=" translate(-18, -18)" d="M 36 27 C 36 29.209138999323173 34.20913899932317 31 32 31 L 4 31 C 1.7908610006768262 31 0 29.209138999323173 0 27 L 0 9 C 0 6.790861000676826 1.7908610006768262 5 4 5 L 32 5 C 34.20913899932317 5 36 6.790861000676825 36 9 L 36 27 z" stroke-linecap="round" />
</g>
<g transform="matrix(22.22 0 0 22.22 540 539.99)"  >
<path style="stroke: none; stroke-width: 1; stroke-dasharray: none; stroke-linecap: butt; stroke-dashoffset: 0; stroke-linejoin: miter; stroke-miterlimit: 4; fill: rgb(255,255,255); fill-rule: nonzero; opacity: 1;" vector-effect="non-scaling-stroke"  transform=" translate(-18, -18)" d="M 32.728 18 L 18 29.124 L 3.272 18 L 18 6.875 z" stroke-linecap="round" />
</g>
<g transform="matrix(22.22 0 0 22.22 539.47 538.31)"  >
<circle style="stroke: none; stroke-width: 1; stroke-dasharray: none; stroke-linecap: butt; stroke-dashoffset: 0; stroke-linejoin: miter; stroke-miterlimit: 4; fill: rgb(0,0,0); fill-rule: nonzero; opacity: 1;" vector-effect="non-scaling-stroke"  cx="0" cy="0" r="6.458" />
</g>
<g transform="matrix(22.22 0 0 22.22 538.19 544.35)"  >
<path style="stroke: none; stroke-width: 1; stroke-dasharray: none; stroke-linecap: butt; stroke-dashoffset: 0; stroke-linejoin: miter; stroke-miterlimit: 4; fill: rgb(255,246,246); fill-rule: nonzero; opacity: 1;" vector-effect="non-scaling-stroke"  transform=" translate(-17.92, -18.2)" d="M 12.277 14.887 C 11.941587399464874 15.519069433661436 11.714443215245726 16.202868071571157 11.604999999999997 16.910000000000004 C 15.599999999999998 16.62 21.022 18.801000000000002 23.348999999999997 21.505 C 23.750999999999998 20.901 24.048999999999996 20.224999999999998 24.231999999999996 19.500999999999998 C 21.359999999999996 16.692999999999998 16.314999999999998 14.870999999999999 12.276999999999996 14.886999999999997 z" stroke-linecap="round" />
</g>
<g transform="matrix(22.22 0 0 22.22 428.89 578.51)"  >
<path style="stroke: none; stroke-width: 1; stroke-dasharray: none; stroke-linecap: butt; stroke-dashoffset: 0; stroke-linejoin: miter; stroke-miterlimit: 4; fill: rgb(255,247,247); fill-rule: nonzero; opacity: 1;" vector-effect="non-scaling-stroke"  transform=" translate(-13, -19.73)" d="M 12 18.233 L 13 18.233 L 13 19.233 L 12 19.233 z M 13 20.233 L 14 20.233 L 14 21.233 L 13 21.233 z" stroke-linecap="round" />
</g>
<g transform="matrix(22.22 0 0 22.22 551.11 578.51)"  >
<path style="stroke: none; stroke-width: 1; stroke-dasharray: none; stroke-linecap: butt; stroke-dashoffset: 0; stroke-linejoin: miter; stroke-miterlimit: 4; fill: rgb(255,246,246); fill-rule: nonzero; opacity: 1;" vector-effect="non-scaling-stroke"  transform=" translate(-18.5, -19.73)" d="M 15 18.233 L 16 18.233 L 16 19.233 L 15 19.233 z M 17 19.233 L 18 19.233 L 18 20.233 L 17 20.233 z M 21 21.233 L 22 21.233 L 22 22.233 L 21 22.233 z M 18 22.233 L 19 22.233 L 19 23.233 L 18 23.233 z M 21 16.233 L 22 16.233 L 22 17.233 L 21 17.233 z" stroke-linecap="round" />
</g>
<g transform="matrix(22.22 0 0 22.22 573.33 600.73)"  >
<path style="stroke: none; stroke-width: 1; stroke-dasharray: none; stroke-linecap: butt; stroke-dashoffset: 0; stroke-linejoin: miter; stroke-miterlimit: 4; fill: rgb(255,255,255); fill-rule: nonzero; opacity: 1;" vector-effect="non-scaling-stroke"  transform=" translate(-19.5, -20.73)" d="M 19 20.233 L 20 20.233 L 20 21.233 L 19 21.233 z" stroke-linecap="round" />
</g>
</svg>