<?xml version="1.0" encoding="UTF-8" standalone="no" ?>
<!DOCTYPE svg PUBLIC "-//W3C//DTD SVG 1.1//EN" "http://www.w3.org/Graphics/SVG/1.1/DTD/svg11.dtd">
<svg xmlns="http://www.w3.org/2000/svg" xmlns:xlink="http://www.w3.org/1999/xlink" version="1.1" width="1080" height="1080" viewBox="0 0 1080 1080" xml:space="preserve">
<desc>Created with Fabric.js 5.2.4</desc>
<defs>
</defs>
<g transform="matrix(1 0 0 1 540 540)" id="8ccf7bdf-5e6c-4851-a06b-58c0cba7fb4a"  >
<rect style="stroke: none; stroke-width: 1; stroke-dasharray: none; stroke-linecap: butt; stroke-dashoffset: 0; stroke-linejoin: miter; stroke-miterlimit: 4; fill: rgb(255,255,255); fill-rule: nonzero; opacity: 1; visibility: hidden;" vector-effect="non-scaling-stroke"  x="-540" y="-540" rx="0" ry="0" width="1080" height="1080" />
</g>
<g transform="matrix(1 0 0 1 540 540)" id="126df947-6966-4044-aa7b-1cb8f9856bc2"  >
</g>
<g transform="matrix(28.57 0 0 28.57 540 540)" clip-path="url(#CLIPPATH_4)"  >
<clipPath id="CLIPPATH_4" >
	<rect transform="matrix(1 0 0 1 0 0)" id="clip0_503_3486" x="-14" y="-10" rx="2" ry="2" width="28" height="20" />
</clipPath>
<rect style="stroke: none; stroke-width: 1; stroke-dasharray: none; stroke-linecap: butt; stroke-dashoffset: 0; stroke-linejoin: miter; stroke-miterlimit: 4; fill: rgb(255,255,255); fill-rule: nonzero; opacity: 1;" vector-effect="non-scaling-stroke"  x="-14" y="-10" rx="2" ry="2" width="28" height="20" />
</g>
<g transform="matrix(28.57 0 0 28.57 540 540)" clip-path="url(#CLIPPATH_5)"  >
<clipPath id="CLIPPATH_5" >
	<rect transform="matrix(1 0 0 1 0 0)" id="clip0_503_3486" x="-14" y="-10" rx="2" ry="2" width="28" height="20" />
</clipPath>
<path style="stroke: none; stroke-width: 1; stroke-dasharray: none; stroke-linecap: butt; stroke-dashoffset: 0; stroke-linejoin: miter; stroke-miterlimit: 4; fill: rgb(1,1,1); fill-rule: evenodd; opacity: 1;" vector-effect="non-scaling-stroke"  transform=" translate(-14, -10)" d="M 28 0 L 0 0 L 0 1.33333 L 28 1.33333 L 28 0 Z M 28 2.66667 L 0 2.66667 L 0 4 L 28 4 L 28 2.66667 Z M 0 5.33333 L 28 5.33333 L 28 6.66667 L 0 6.66667 L 0 5.33333 Z M 28 8 L 0 8 L 0 9.33333 L 28 9.33333 L 28 8 Z M 0 10.6667 L 28 10.6667 L 28 12 L 0 12 L 0 10.6667 Z M 28 13.3333 L 0 13.3333 L 0 14.6667 L 28 14.6667 L 28 13.3333 Z M 0 16 L 28 16 L 28 17.3333 L 0 17.3333 L 0 16 Z M 28 18.6667 L 0 18.6667 L 0 20 L 28 20 L 28 18.6667 Z" stroke-linecap="round" />
</g>
<g transform="matrix(28.57 0 0 28.57 311.43 387.62)" clip-path="url(#CLIPPATH_6)"  >
<clipPath id="CLIPPATH_6" >
	<rect transform="matrix(1 0 0 1 8 5.33)" id="clip0_503_3486" x="-14" y="-10" rx="2" ry="2" width="28" height="20" />
</clipPath>
<rect style="stroke: none; stroke-width: 1; stroke-dasharray: none; stroke-linecap: butt; stroke-dashoffset: 0; stroke-linejoin: miter; stroke-miterlimit: 4; fill: rgb(0,0,0); fill-rule: nonzero; opacity: 1;" vector-effect="non-scaling-stroke"  x="-6" y="-4.666665" rx="0" ry="0" width="12" height="9.33333" />
</g>
<g transform="matrix(28.57 0 0 28.57 311.43 387.62)" clip-path="url(#CLIPPATH_7)"  >
<linearGradient id="SVGID_paint0_linear_503_3486_3" gradientUnits="userSpaceOnUse" gradientTransform="matrix(1 0 0 1 0 0)"  x1="1.33331" y1="1.33333" x2="1.33331" y2="7.99999">
<stop offset="0%" style="stop-color:rgb(255,255,255);stop-opacity: 1"/>
<stop offset="100%" style="stop-color:rgb(240,240,240);stop-opacity: 1"/>
</linearGradient>
<clipPath id="CLIPPATH_7" >
	<rect transform="matrix(1 0 0 1 8 5.33)" id="clip0_503_3486" x="-14" y="-10" rx="2" ry="2" width="28" height="20" />
</clipPath>
<path style="stroke: none; stroke-width: 1; stroke-dasharray: none; stroke-linecap: butt; stroke-dashoffset: 0; stroke-linejoin: miter; stroke-miterlimit: 4; fill: url(#SVGID_paint0_linear_503_3486_3); fill-rule: evenodd; opacity: 1;" vector-effect="non-scaling-stroke"  transform=" translate(-6, -4.67)" d="M 2.66665 1.99999 C 2.66665 2.36818 2.36817 2.66666 1.99998 2.66666 C 1.63179 2.66666 1.33331 2.36818 1.33331 1.99999 C 1.33331 1.63181 1.63179 1.33333 1.99998 1.33333 C 2.36817 1.33333 2.66665 1.63181 2.66665 1.99999 Z M 5.33331 1.99999 C 5.33331 2.36818 5.03484 2.66666 4.66665 2.66666 C 4.29846 2.66666 3.99998 2.36818 3.99998 1.99999 C 3.99998 1.63181 4.29846 1.33333 4.66665 1.33333 C 5.03484 1.33333 5.33331 1.63181 5.33331 1.99999 Z M 7.33331 2.66666 C 7.7015 2.66666 7.99998 2.36818 7.99998 1.99999 C 7.99998 1.63181 7.7015 1.33333 7.33331 1.33333 C 6.96512 1.33333 6.66665 1.63181 6.66665 1.99999 C 6.66665 2.36818 6.96512 2.66666 7.33331 2.66666 Z M 10.6666 1.99999 C 10.6666 2.36818 10.3682 2.66666 9.99998 2.66666 C 9.63179 2.66666 9.33331 2.36818 9.33331 1.99999 C 9.33331 1.63181 9.63179 1.33333 9.99998 1.33333 C 10.3682 1.33333 10.6666 1.63181 10.6666 1.99999 Z M 3.33331 3.99999 C 3.7015 3.99999 3.99998 3.70152 3.99998 3.33333 C 3.99998 2.96514 3.7015 2.66666 3.33331 2.66666 C 2.96512 2.66666 2.66665 2.96514 2.66665 3.33333 C 2.66665 3.70152 2.96512 3.99999 3.33331 3.99999 Z M 6.66665 3.33333 C 6.66665 3.70152 6.36817 3.99999 5.99998 3.99999 C 5.63179 3.99999 5.33331 3.70152 5.33331 3.33333 C 5.33331 2.96514 5.63179 2.66666 5.99998 2.66666 C 6.36817 2.66666 6.66665 2.96514 6.66665 3.33333 Z M 8.66665 3.99999 C 9.03484 3.99999 9.33331 3.70152 9.33331 3.33333 C 9.33331 2.96514 9.03484 2.66666 8.66665 2.66666 C 8.29846 2.66666 7.99998 2.96514 7.99998 3.33333 C 7.99998 3.70152 8.29846 3.99999 8.66665 3.99999 Z M 10.6666 4.66666 C 10.6666 5.03485 10.3682 5.33333 9.99998 5.33333 C 9.63179 5.33333 9.33331 5.03485 9.33331 4.66666 C 9.33331 4.29847 9.63179 3.99999 9.99998 3.99999 C 10.3682 3.99999 10.6666 4.29847 10.6666 4.66666 Z M 7.33331 5.33333 C 7.7015 5.33333 7.99998 5.03485 7.99998 4.66666 C 7.99998 4.29847 7.7015 3.99999 7.33331 3.99999 C 6.96512 3.99999 6.66665 4.29847 6.66665 4.66666 C 6.66665 5.03485 6.96512 5.33333 7.33331 5.33333 Z M 5.33331 4.66666 C 5.33331 5.03485 5.03484 5.33333 4.66665 5.33333 C 4.29846 5.33333 3.99998 5.03485 3.99998 4.66666 C 3.99998 4.29847 4.29846 3.99999 4.66665 3.99999 C 5.03484 3.99999 5.33331 4.29847 5.33331 4.66666 Z M 1.99998 5.33333 C 2.36817 5.33333 2.66665 5.03485 2.66665 4.66666 C 2.66665 4.29847 2.36817 3.99999 1.99998 3.99999 C 1.63179 3.99999 1.33331 4.29847 1.33331 4.66666 C 1.33331 5.03485 1.63179 5.33333 1.99998 5.33333 Z M 3.99998 5.99999 C 3.99998 6.36819 3.7015 6.66666 3.33331 6.66666 C 2.96512 6.66666 2.66665 6.36819 2.66665 5.99999 C 2.66665 5.6318 2.96512 5.33333 3.33331 5.33333 C 3.7015 5.33333 3.99998 5.6318 3.99998 5.99999 Z M 5.99998 6.66666 C 6.36817 6.66666 6.66665 6.36819 6.66665 5.99999 C 6.66665 5.6318 6.36817 5.33333 5.99998 5.33333 C 5.63179 5.33333 5.33331 5.6318 5.33331 5.99999 C 5.33331 6.36819 5.63179 6.66666 5.99998 6.66666 Z M 9.33331 5.99999 C 9.33331 6.36819 9.03484 6.66666 8.66665 6.66666 C 8.29846 6.66666 7.99998 6.36819 7.99998 5.99999 C 7.99998 5.6318 8.29846 5.33333 8.66665 5.33333 C 9.03484 5.33333 9.33331 5.6318 9.33331 5.99999 Z M 9.99998 8 C 10.3682 8 10.6666 7.70152 10.6666 7.33333 C 10.6666 6.96514 10.3682 6.66666 9.99998 6.66666 C 9.63179 6.66666 9.33331 6.96514 9.33331 7.33333 C 9.33331 7.70152 9.63179 8 9.99998 8 Z M 7.99998 7.33333 C 7.99998 7.70152 7.7015 8 7.33331 8 C 6.96512 8 6.66665 7.70152 6.66665 7.33333 C 6.66665 6.96514 6.96512 6.66666 7.33331 6.66666 C 7.7015 6.66666 7.99998 6.96514 7.99998 7.33333 Z M 4.66665 8 C 5.03484 8 5.33331 7.70152 5.33331 7.33333 C 5.33331 6.96514 5.03484 6.66666 4.66665 6.66666 C 4.29846 6.66666 3.99998 6.96514 3.99998 7.33333 C 3.99998 7.70152 4.29846 8 4.66665 8 Z M 2.66665 7.33333 C 2.66665 7.70152 2.36817 8 1.99998 8 C 1.63179 8 1.33331 7.70152 1.33331 7.33333 C 1.33331 6.96514 1.63179 6.66666 1.99998 6.66666 C 2.36817 6.66666 2.66665 6.96514 2.66665 7.33333 Z" stroke-linecap="round" />
</g>
</svg>